<!DOCTYPE svg PUBLIC "-//W3C//DTD SVG 1.1//EN" "http://www.w3.org/Graphics/SVG/1.1/DTD/svg11.dtd">
<!-- Uploaded to: SVG Repo, www.svgrepo.com, Transformed by: SVG Repo Mixer Tools -->
<svg fill="#000000" height="64px" width="64px" version="1.1" id="Layer_1" xmlns="http://www.w3.org/2000/svg" xmlns:xlink="http://www.w3.org/1999/xlink" viewBox="0 0 511.999 511.999" xml:space="preserve">
<g id="SVGRepo_bgCarrier" stroke-width="0"/>
<g id="SVGRepo_tracerCarrier" stroke-linecap="round" stroke-linejoin="round"/>
<g id="SVGRepo_iconCarrier"> <g> <g> <circle cx="200.32" cy="189.877" r="12.272"/> </g> </g> <g> <g> <circle cx="311.686" cy="189.877" r="12.272"/> </g> </g> <g> <g> <path d="M214.347,205.029c0,23.004,18.648,41.654,41.654,41.654s41.654-18.65,41.654-41.654H214.347z"/> </g> </g> <g> <g> <path d="M435.936,237.039h-59.918c2.618-8.545,4.036-17.611,4.036-27.003c0-6.887-0.573-13.642-1.658-20.226 c32.105-31.609,21.064-85.197,20.561-87.541c-0.568-2.64-2.393-4.835-4.885-5.874c-0.847-0.352-20.995-8.63-45.001-8.63 c-15.381,0-28.907,3.373-40.297,10.02c-16.023-7.563-33.912-11.802-52.774-11.802s-36.75,4.239-52.773,11.802 c-11.39-6.647-24.916-10.02-40.296-10.02c-24.009,0-44.155,8.278-45.001,8.63c-2.493,1.039-4.318,3.233-4.885,5.874 c-0.503,2.343-11.545,55.932,20.56,87.541c-1.085,6.585-1.658,13.339-1.658,20.227c0,9.392,1.419,18.456,4.036,27.001h-59.92 C34.122,237.039,0,271.162,0,313.104v71.908c0,4.549,3.687,8.235,8.235,8.235c4.548,0,8.236-3.686,8.236-8.235 c0-22.953,18.674-41.628,41.628-41.628c22.953,0,41.628,18.675,41.628,41.628c0,4.549,3.687,8.235,8.236,8.235 c4.548,0,8.235-3.686,8.235-8.235c0-21.254,16.015-38.828,36.611-41.315c2.577,45.824,40.661,82.319,87.119,82.319h32.145 c46.458,0,84.542-36.494,87.119-82.319c20.595,2.487,36.611,20.061,36.611,41.315c0,4.549,3.687,8.235,8.235,8.235 c4.548,0,8.235-3.686,8.235-8.235c0-22.953,18.674-41.628,41.628-41.628s41.628,18.675,41.628,41.628 c0,4.549,3.687,8.235,8.235,8.235c4.548,0,8.235-3.686,8.235-8.235v-71.908C512,271.162,477.878,237.039,435.936,237.039z M349.07,104.237c14.695,0,28.015,3.711,34.506,5.865c1.495,10.749,3.718,39.081-10.11,59.907 c-8.577-25.316-25.06-47.059-47.178-62.221C333.078,105.427,340.696,104.237,349.07,104.237z M256.001,102.454 c59.321,0,107.582,48.261,107.582,107.583c0,30.761-20.501,60.343-49.472,71.135c-17.199,6.407-36.113,4.749-54.154,4.749 c-11.884,0-23.769,0-35.653,0c-40.852,0-75.885-34.888-75.885-75.885C148.418,150.715,196.679,102.454,256.001,102.454z M128.437,110.098c6.499-2.156,19.809-5.86,34.494-5.86c8.374,0,15.991,1.19,22.781,3.55 c-22.114,15.159-38.594,36.894-47.172,62.203C124.794,149.206,126.968,120.848,128.437,110.098z M153.801,325.847 c-0.071,0.407-0.152,0.811-0.216,1.221c-19.375,1.402-36.147,12.351-45.623,28.151c-10.161-16.943-28.71-28.306-49.863-28.306 c-16.307,0-31.066,6.752-41.628,17.609v-31.418c0-32.861,26.733-59.593,59.593-59.593h66.759 c7.287,13.651,17.835,25.187,30.648,33.639c-10.243,10.609-17.069,23.999-19.643,38.551 C153.819,325.749,153.81,325.797,153.801,325.847z M272.073,409.545h-32.146c-39.038,0-70.799-31.76-70.799-70.8 c0-0.967,0.03-1.929,0.076-2.887c0.004-0.057,0.014-0.113,0.018-0.17c0.814-15.643,7.872-30.116,19.547-40.386 c9.714,4.065,19.934,6.387,30.497,6.949c0.104,0.005,0.206,0.018,0.311,0.023c1.568,0.078,3.144,0.12,4.726,0.12h63.395 c1.582,0,3.158-0.042,4.726-0.12c0.104-0.005,0.206-0.018,0.311-0.023c10.561-0.561,20.782-2.883,30.497-6.947 c11.675,10.269,18.733,24.741,19.547,40.385c0.003,0.057,0.013,0.113,0.018,0.17c0.046,0.959,0.076,1.919,0.076,2.887 C342.871,377.784,311.111,409.545,272.073,409.545z M453.901,326.913c-21.152,0-39.702,11.364-49.863,28.306 c-9.476-15.801-26.248-26.749-45.623-28.153c-0.065-0.407-0.145-0.812-0.216-1.217c-0.009-0.05-0.018-0.102-0.027-0.153 c-2.574-14.55-9.399-27.938-19.642-38.546c12.811-8.447,23.357-19.983,30.648-33.64h66.758c32.86,0,59.593,26.734,59.593,59.593 v31.418C484.966,333.665,470.208,326.913,453.901,326.913z"/> </g> </g> </g>
</svg>