<!DOCTYPE svg PUBLIC "-//W3C//DTD SVG 1.1//EN" "http://www.w3.org/Graphics/SVG/1.1/DTD/svg11.dtd">
<!-- Uploaded to: SVG Repo, www.svgrepo.com, Transformed by: SVG Repo Mixer Tools -->
<svg fill="#000000" height="64px" width="64px" version="1.1" id="Layer_1" xmlns="http://www.w3.org/2000/svg" xmlns:xlink="http://www.w3.org/1999/xlink" viewBox="0 0 511.999 511.999" xml:space="preserve">
<g id="SVGRepo_bgCarrier" stroke-width="0"/>
<g id="SVGRepo_tracerCarrier" stroke-linecap="round" stroke-linejoin="round"/>
<g id="SVGRepo_iconCarrier"> <g> <g> <path d="M309.164,262.221l-40.521-7.512c-5.015-0.924-9.831,2.383-10.762,7.395c-0.929,5.014,2.382,9.832,7.395,10.762 l40.521,7.512c0.57,0.106,1.135,0.156,1.694,0.156c4.363,0,8.244-3.107,9.068-7.551 C317.488,267.968,314.177,263.15,309.164,262.221z"/> </g> </g> <g> <g> <path d="M439.798,262.105c-0.928-5.014-5.743-8.326-10.761-7.395l-40.521,7.512c-5.014,0.929-8.324,5.748-7.395,10.762 c0.824,4.445,4.704,7.551,9.068,7.551c0.558,0,1.125-0.052,1.693-0.156l40.521-7.512 C437.417,271.937,440.728,267.119,439.798,262.105z"/> </g> </g> <g> <g> <circle cx="286.413" cy="293.603" r="13.758"/> </g> </g> <g> <g> <circle cx="411.265" cy="293.603" r="13.758"/> </g> </g> <g> <g> <path d="M302.142,322.898c0,25.79,20.908,46.698,46.698,46.698s46.698-20.908,46.698-46.698H302.142z"/> </g> </g> <g> <g> <path d="M328.562,304.256c0,5.845,9.079,10.582,20.279,10.582c11.2,0,20.279-4.738,20.279-10.582 C369.119,298.411,328.562,298.411,328.562,304.256z"/> </g> </g> <g> <g> <path d="M486.072,271.361c24.855-24.476,30.11-65.216,23.036-98.136c-0.159-0.74-0.406-1.449-0.731-2.114 c-0.975-1.995-2.65-3.597-4.746-4.471c-0.623-0.258-10.565-4.344-24.932-7.123c-7.527-1.455-16.267-2.552-25.518-2.552 c-3.23,0-6.388,0.133-9.47,0.396c-13.357,1.145-25.308,4.763-35.677,10.806c-1.541,0.899-17.185-6.741-19.823-7.518 c-6.47-1.903-13.08-3.342-19.758-4.289c-16.582-2.351-33.584-1.694-49.931,1.954c-0.058,0.012-0.116,0.027-0.174,0.041 c-2.62,0.587-5.226,1.234-7.811,1.973c-1.397,0.4-17.103-14.923-19.633-16.752c-7.458-5.391-15.379-10.138-23.642-14.186 c-16.333-8.005-33.988-13.264-52.025-15.596c-36.327-4.695-73.948,2.661-105.482,21.413 c-15.542,9.243-29.524,21.109-41.213,34.902c-12.161-32.464-8.455-69.223,10.662-98.96c4.445-6.915,5.932-15.148,4.186-23.179 c-1.746-8.033-6.517-14.905-13.432-19.351c-4.977-3.201-10.726-4.892-16.623-4.892c-10.531,0-20.216,5.285-25.907,14.136 c-18.732,29.139-28.199,62.842-27.38,97.47c0.82,34.627,11.87,67.844,31.957,96.063l2.777,3.901 c-7.727,30.079-5.168,62.23-5.168,93.074c0,28.336,0,56.671,0,85.007c0,10.685,0,21.371,0,32.055 c0,23.621,19.216,42.838,42.838,42.838c23.621,0,42.838-19.216,42.838-42.838v-47.849h75.605v47.849 c0,23.621,19.216,42.838,42.838,42.838c23.621,0,42.838-19.216,42.838-42.838v-47.849h36.399v47.849 c0,23.621,19.216,42.838,42.838,42.838c23.621,0,42.838-19.216,42.838-42.838c0,0,0-48.828,0-48.824 c0.025,0.176,24.608-6.697,27.018-7.645c14.431-5.675,27.425-16.273,37.197-28.166c10.072-12.259,17.237-26.8,21.163-42.154 c1.996-7.806,3.159-15.823,3.481-23.872C487.631,291.614,484.678,272.734,486.072,271.361z M42.164,213.35 c-14.828-23.542-22.992-50.476-23.654-78.454c-0.731-30.924,7.722-61.024,24.45-87.044c2.277-3.542,6.155-5.657,10.374-5.657 c2.35,0,4.645,0.677,6.638,1.959c2.767,1.778,4.674,4.528,5.373,7.741c0.698,3.212,0.103,6.505-1.674,9.271 c-24.427,37.997-27.259,85.834-7.818,126.154C50.549,195.525,45.959,204.232,42.164,213.35z M258.106,388.352v57.082 c0,13.439-10.933,24.372-24.372,24.372s-24.372-10.933-24.372-24.372v-57.082c0-5.1-4.134-9.233-9.233-9.233h-94.07 c-5.099,0-9.233,4.133-9.233,9.233v57.082c0,13.439-10.933,24.372-24.372,24.372c-13.439,0-24.372-10.933-24.372-24.372V276.329 c0-1.534,0.032-3.065,0.08-4.594c0.014-0.442,0.033-0.884,0.05-1.325c0.047-1.163,0.107-2.325,0.181-3.485 c0.026-0.414,0.049-0.828,0.079-1.241c0.107-1.485,0.234-2.967,0.387-4.445c0.038-0.364,0.085-0.726,0.126-1.089 c0.124-1.121,0.261-2.24,0.41-3.357c0.078-0.579,0.159-1.157,0.244-1.735c0.138-0.94,0.288-1.88,0.444-2.817 c0.116-0.692,0.229-1.384,0.353-2.072c0.207-1.145,0.428-2.286,0.664-3.426c0.174-0.841,0.359-1.677,0.548-2.511 c0.113-0.506,0.23-1.011,0.35-1.515c9.298-39.295,34.524-72.496,68.459-92.389c0.478-0.278,0.952-0.56,1.433-0.833 c0.504-0.287,1.011-0.568,1.518-0.849c0.811-0.449,1.625-0.894,2.445-1.327c0.283-0.15,0.565-0.3,0.848-0.448 c16.585-8.631,34.816-14.082,53.751-15.855c0.192-0.018,0.385-0.034,0.577-0.052c1.167-0.105,2.337-0.192,3.507-0.268 c0.336-0.022,0.671-0.044,1.007-0.064c1.071-0.063,2.143-0.11,3.218-0.148c0.362-0.012,0.721-0.031,1.083-0.042 c1.395-0.041,2.793-0.064,4.193-0.064c13.911,0,27.649,2.013,40.809,5.861c20.76,6.07,40.073,16.717,56.358,31.227 c-0.517,0.235-1.039,0.462-1.554,0.704c-10.369-6.043-22.32-9.662-35.677-10.806c-3.083-0.265-6.24-0.396-9.47-0.396 c-26.917,0-49.503,9.281-50.452,9.676c-2.794,1.163-4.84,3.623-5.477,6.584c-0.564,2.628-12.947,62.7,23.035,98.137 c1.575,1.55-1.934,23.002-1.743,27.013c0.457,9.603,2.302,19.134,5.37,28.244c7.683,22.814,23.721,43.333,44.333,55.899 c0.142,0.086,0.287,0.166,0.428,0.252C258.816,384.321,258.106,386.251,258.106,388.352z M380.183,445.434h-0.001 c0,13.439-10.933,24.372-24.372,24.372c-13.439,0-24.372-10.933-24.372-24.372v-47.849h48.745V445.434z M470.09,260.973 c-0.961,0.817-1.727,1.806-2.272,2.897c-0.911,1.818-1.213,3.918-0.794,5.979c1.007,4.945,1.704,9.98,2.084,15.047 c0.229,3.041,0.343,6.094,0.343,9.147c0,1.444-0.038,2.879-0.11,4.306c-0.018,0.369-0.058,0.734-0.081,1.102 c-0.066,1.061-0.137,2.122-0.242,3.172c-0.036,0.358-0.09,0.71-0.13,1.067c-0.121,1.061-0.245,2.121-0.404,3.17 c-0.044,0.295-0.103,0.586-0.151,0.88c-0.181,1.11-0.371,2.218-0.593,3.315c-0.043,0.211-0.095,0.417-0.139,0.627 c-0.25,1.183-0.517,2.361-0.816,3.526c-0.028,0.11-0.06,0.217-0.089,0.326c-0.332,1.27-0.687,2.531-1.075,3.777 c0,0.001-0.001,0.002-0.001,0.004c-9.953,31.929-38.251,55.844-72.502,59.355c-1.056,0.107-2.124,0.177-3.192,0.246 c-1.837,0.119-3.682,0.201-5.548,0.201h-62.174h-8.899c-46.91,0-85.075-38.165-85.075-85.075c0-8.141,0.816-16.282,2.428-24.194 c0.67-3.297-0.505-6.696-3.066-8.876c-26.774-22.766-23.71-64.722-21.759-78.982c6.799-2.265,20.279-6.049,35.584-6.513 c1.021-0.031,2.048-0.047,3.084-0.047c5.841,0,11.355,0.517,16.52,1.545c8.61,1.714,16.253,4.847,22.842,9.374 c1.405,0.966,3.02,1.506,4.661,1.607c0.821,0.05,1.648-0.009,2.46-0.179c0.811-0.17,1.607-0.451,2.364-0.843 c5.546-2.879,11.239-5.296,17.061-7.259c0.111-0.032,0.224-0.048,0.335-0.085c9.17-3.053,18.644-4.978,28.273-5.759 c0.111-0.009,0.222-0.016,0.332-0.025c1.347-0.106,2.697-0.182,4.05-0.243c0.32-0.014,0.64-0.031,0.961-0.042 c1.491-0.054,2.985-0.09,4.482-0.09c19.569,0,38.239,4.543,55.493,13.502c1.513,0.785,3.181,1.122,4.822,1.021 c1.642-0.101,3.256-0.64,4.662-1.607c10.541-7.245,23.786-10.918,39.362-10.918c1.029,0,2.053,0.016,3.069,0.047 c0.357,0.011,0.708,0.033,1.064,0.048c0.655,0.027,1.311,0.049,1.959,0.089c0.915,0.054,1.819,0.122,2.718,0.198 c0.082,0.007,0.167,0.011,0.25,0.018c12.427,1.071,23.15,4.057,29.158,6.025c0.148,0.048,0.311,0.1,0.453,0.148 C493.803,196.29,496.852,238.218,470.09,260.973z"/> </g> </g> </g>
</svg>