<!DOCTYPE svg PUBLIC "-//W3C//DTD SVG 1.1//EN" "http://www.w3.org/Graphics/SVG/1.1/DTD/svg11.dtd">
<!-- Uploaded to: SVG Repo, www.svgrepo.com, Transformed by: SVG Repo Mixer Tools -->
<svg fill="#000000" height="64px" width="64px" version="1.1" id="Layer_1" xmlns="http://www.w3.org/2000/svg" xmlns:xlink="http://www.w3.org/1999/xlink" viewBox="0 0 512 512" xml:space="preserve">
<g id="SVGRepo_bgCarrier" stroke-width="0"/>
<g id="SVGRepo_tracerCarrier" stroke-linecap="round" stroke-linejoin="round"/>
<g id="SVGRepo_iconCarrier"> <g> <g> <path d="M468.739,212.739c0-18.704-2.446-37.302-7.272-55.278C436.584,64.751,352.092,0,255.999,0 C159.907,0,75.416,64.751,50.546,157.407l-0.188,0.688c-4.709,17.749-7.098,36.134-7.098,54.644V342.54v1.057v83.12 c0,47.025,38.257,85.283,85.283,85.283h45.552h163.808h45.552c47.025,0,85.282-38.258,85.282-85.283v-83.633l0.001-0.538 c0-0.017-0.001-0.035-0.001-0.052L468.739,212.739z M128.544,490.365L128.544,490.365c-35.095,0-63.649-28.552-63.649-63.649 V402.62c14.618,17.297,35.505,29.134,59.134,31.927v25.426c0,11.274,3.64,21.797,9.785,30.392H128.544z M447.103,426.717 c0,35.095-28.552,63.649-63.647,63.649h-5.27c6.143-8.593,9.785-19.118,9.785-30.392v-25.431 c23.586-2.808,44.495-14.683,59.133-32.018V426.717z M447.102,344.19c-0.317,38.244-31.696,69.359-69.95,69.359 c-5.974,0-10.817,4.843-10.817,10.817v35.607c0,16.279-12.813,29.883-28.592,30.392H321.46v-51.254 c0-5.974-4.843-10.817-10.817-10.817s-10.817,4.843-10.817,10.817v51.254h-33.011v-51.254c0-5.974-4.843-10.817-10.817-10.817 c-5.974,0-10.817,4.843-10.817,10.817v51.254h-33.01v-51.254c0-5.974-4.843-10.817-10.817-10.817s-10.817,4.843-10.817,10.817 v51.254h-16.278c-15.779-0.508-28.594-14.113-28.594-30.392v-35.607c0-5.974-4.843-10.817-10.817-10.817 c-38.571,0-69.951-31.38-69.951-69.951v-1.056c0-16.637,2.145-33.153,6.35-49.006l0.18-0.659 C93.777,209.602,169.677,151.441,256,151.441s162.222,58.161,184.574,141.436c4.334,16.145,6.531,32.857,6.531,49.67 L447.102,344.19z M447.104,248.984c-35.162-71.764-108.883-119.177-191.106-119.177c-82.23,0-155.957,47.418-191.104,119.161 v-36.229c0-16.638,2.145-33.157,6.35-49.012l0.18-0.658C93.777,79.795,169.677,21.634,256,21.634s162.222,58.161,184.572,141.436 c4.334,16.148,6.532,32.858,6.532,49.67V248.984z"/> </g> </g> <g> <g> <circle cx="159.359" cy="342.892" r="23.481"/> </g> </g> <g> <g> <circle cx="352.641" cy="342.892" r="23.481"/> </g> </g> <g> <g> <path d="M264.554,355.945c-4.497-5.267-12.613-5.267-17.11,0c-12.95,15.172-33.939,50.041-13.233,50.041h43.576 C298.492,405.985,277.503,371.116,264.554,355.945z"/> </g> </g> </g>
</svg>