<!DOCTYPE svg PUBLIC "-//W3C//DTD SVG 1.1//EN" "http://www.w3.org/Graphics/SVG/1.1/DTD/svg11.dtd">
<!-- Uploaded to: SVG Repo, www.svgrepo.com, Transformed by: SVG Repo Mixer Tools -->
<svg fill="#000000" height="64px" width="64px" version="1.1" id="Layer_1" xmlns="http://www.w3.org/2000/svg" xmlns:xlink="http://www.w3.org/1999/xlink" viewBox="0 0 512 512" xml:space="preserve">
<g id="SVGRepo_bgCarrier" stroke-width="0"/>
<g id="SVGRepo_tracerCarrier" stroke-linecap="round" stroke-linejoin="round"/>
<g id="SVGRepo_iconCarrier"> <g> <g> <path d="M401.738,193.983c-18.392-18.787-42.691-29.134-68.418-29.134l-0.494,0.001c-24.395,0.127-47.661,9.402-65.513,26.113 c-3.08,2.884-7.098,4.473-11.312,4.473c-4.215,0-8.232-1.588-11.312-4.473c-17.851-16.712-41.117-25.986-65.513-26.113 l-0.494-0.001c-25.731,0-50.028,10.346-68.422,29.133c-18.257,18.649-28.312,43.143-28.312,68.971v1.145 c0,39.116,23.374,74.154,59.547,89.262c5.146,2.149,8.805,6.412,10.037,11.697c5.407,23.185,18.664,44.227,37.33,59.249 c18.963,15.261,42.807,23.665,67.137,23.665s48.175-8.405,67.137-23.665c18.665-15.022,31.923-36.064,37.331-59.249 c1.232-5.284,4.89-9.547,10.037-11.697c36.173-15.107,59.547-50.144,59.547-89.262v-1.145 C430.051,237.128,419.996,212.633,401.738,193.983z M409.352,264.098c0,30.741-18.38,58.28-46.822,70.159 c-11.194,4.674-19.5,14.431-22.22,26.098c-4.362,18.704-15.069,35.687-30.149,47.823c-15.52,12.491-34.247,19.092-54.159,19.092 s-38.639-6.602-54.159-19.092c-15.08-12.135-25.788-29.119-30.149-47.823c-2.721-11.667-11.028-21.423-22.22-26.098 c-28.444-11.88-46.824-39.418-46.824-70.159v-1.145c0-20.381,7.956-39.732,22.404-54.489 c14.466-14.776,33.512-22.914,53.629-22.914l0.386,0.001c19.161,0.099,37.441,7.389,51.472,20.526 c6.929,6.488,15.973,10.062,25.461,10.062c9.488,0,18.531-3.573,25.461-10.062c14.031-13.137,32.311-20.425,51.472-20.526 l0.386-0.001c20.116,0,39.16,8.138,53.626,22.914c14.448,14.758,22.405,34.109,22.405,54.487V264.098z"/> </g> </g> <g> <g> <circle cx="163.826" cy="275.652" r="17.247"/> </g> </g> <g> <g> <circle cx="348.174" cy="275.652" r="17.247"/> </g> </g> <g> <g> <path d="M226.038,278.023c0,8.635,13.416,15.635,29.962,15.635s29.961-7,29.961-15.635 C285.961,269.388,226.038,269.388,226.038,278.023z"/> </g> </g> <g> <g> <path d="M481.505,47.231c-10.408-13.66-26.105-21.494-43.062-21.494c-3.783,0-7.611,0.402-11.379,1.194l-52.707,11.08 C340.657,13.925,299.578,0,256,0C212.42,0,171.34,13.926,137.639,38.009L84.936,26.93c-3.768-0.792-7.596-1.194-11.379-1.194 c-16.959,0-32.655,7.835-43.063,21.493c-10.33,13.556-13.654,30.789-9.117,47.278l31.065,112.916v255.585 c0,27.015,21.977,48.992,48.992,48.992c15.683,0,29.668-7.407,38.641-18.907c8.973,11.5,22.959,18.907,38.642,18.907 s29.668-7.407,38.641-18.907C226.332,504.593,240.317,512,256,512s29.668-7.407,38.641-18.907 C303.615,504.593,317.6,512,333.283,512s29.668-7.407,38.641-18.907c8.973,11.5,22.959,18.907,38.642,18.907 c27.015,0,48.992-21.977,48.992-48.992V207.423l31.065-112.916C495.159,78.019,491.836,60.787,481.505,47.231z M61.469,143.509 c-0.079,0.257-0.155,0.513-0.233,0.77c-0.636,2.098-1.25,4.205-1.822,6.334l-0.181,0.661c-0.001,0.004-0.001,0.008-0.003,0.012 c-0.126,0.473-0.25,0.947-0.371,1.42L41.337,89.016c-2.808-10.208-0.759-20.866,5.622-29.241 c6.46-8.478,16.155-13.34,26.598-13.34c2.354,0,4.749,0.253,7.12,0.751l36.373,7.647c-0.043,0.04-0.084,0.083-0.128,0.124 C91.56,78.649,72.121,108.901,61.469,143.509z M438.857,463.008c0,15.6-12.691,28.291-28.291,28.291s-28.291-12.691-28.291-28.291 c0-5.716-4.634-10.35-10.35-10.35s-10.35,4.634-10.35,10.35c0,15.6-12.691,28.291-28.291,28.291 c-15.6,0-28.291-12.691-28.291-28.291c0-5.716-4.634-10.35-10.35-10.35s-10.35,4.634-10.35,10.35 c0,15.6-12.691,28.291-28.291,28.291c-15.6,0-28.291-12.691-28.291-28.291c0-5.716-4.634-10.35-10.35-10.35 c-5.716,0-10.35,4.634-10.35,10.35c0,15.6-12.691,28.291-28.291,28.291c-15.6,0-28.291-12.691-28.291-28.291 c0-5.716-4.634-10.35-10.35-10.35c-5.716,0-10.35,4.634-10.35,10.35c0,15.6-12.691,28.291-28.291,28.291 s-28.291-12.691-28.291-28.291c0-7.563,0-15.125,0-22.689c0-18.478,0-36.956,0-55.434c0-23.088,0-46.178,0-69.266 c0-21.395,0-42.79,0-64.185c0-16.027-0.23-32.075-0.012-48.1c0.215-15.774,2.038-31.403,6.089-46.672l0.172-0.629 c9.313-34.145,28.453-65.293,54.875-88.878c26.192-23.378,59.091-38.937,93.786-44.307c9.244-1.43,18.595-2.146,27.948-2.146 c35.578,0,70.795,10.592,100.508,30.153c28.28,18.617,51.159,45.209,65.441,75.9c11.154,23.969,16.908,50.375,16.908,76.807 V463.008z M470.665,89.016l-17.524,63.698c-0.175-0.685-0.355-1.366-0.538-2.048c-0.57-2.125-1.184-4.23-1.819-6.323 c-0.081-0.268-0.161-0.537-0.243-0.805c-9.95-32.317-27.556-60.829-50.482-83.751c-0.007-0.007-0.014-0.014-0.021-0.021 c-1.572-1.572-3.164-3.123-4.787-4.641c-0.101-0.095-0.197-0.195-0.298-0.29l36.373-7.647c2.37-0.498,4.765-0.751,7.12-0.751 c10.443,0,20.136,4.862,26.596,13.341C471.423,68.153,473.472,78.809,470.665,89.016z"/> </g> </g> <g> <g> <path d="M316.723,320.696H195.278c-5.716,0-10.35,4.634-10.35,10.35c0,39.189,31.883,71.073,71.073,71.073 s71.073-31.883,71.073-71.073C327.073,325.33,322.439,320.696,316.723,320.696z M256,381.418 c-24.228,0-44.516-17.194-49.304-40.022h14.072v5.773c0,5.716,4.634,10.35,10.35,10.35s10.35-4.634,10.35-10.35v-5.773h29.06 v5.773c0,5.716,4.634,10.35,10.35,10.35s10.35-4.634,10.35-10.35v-5.773h14.072C300.517,364.224,280.229,381.418,256,381.418z"/> </g> </g> </g>
</svg>