<svg xmlns="http://www.w3.org/2000/svg" viewBox="0 0 100 100" fill="none">
  <circle cx="50" cy="50" r="45" fill="white"/>
  <path d="M50 15C40 15 35 25 32.5 30C30 35 25 40 25 50C25 65 35 80 50 80C65 80 75 65 75 50C75 40 70 35 67.5 30C65 25 60 15 50 15Z" fill="#f5f3ff"/>
  <path d="M50 20C42.5 20 38.75 28.75 36.875 32.5C35 36.25 31.25 40 31.25 50C31.25 62.5 39.375 75 50 75C60.625 75 68.75 62.5 68.75 50C68.75 40 65 36.25 63.125 32.5C61.25 28.75 57.5 20 50 20Z" fill="#ddd6fe"/>
  <path d="M42 40C42 40 45 50 45 60" stroke="#8b5cf6" stroke-width="3" stroke-linecap="round"/>
  <path d="M58 40C58 40 55 50 55 60" stroke="#8b5cf6" stroke-width="3" stroke-linecap="round"/>
  <path d="M50 45C50 45 48 55 48 65" stroke="#8b5cf6" stroke-width="3" stroke-linecap="round"/>
</svg> 